<svg width="300" height="480" xmlns="http://www.w3.org/2000/svg" xmlns:xlink="http://www.w3.org/1999/xlink"><defs><path d="M0 0h300v480H0V0z" id="a"/></defs><g fill="none" fill-rule="evenodd"><mask id="b" fill="#fff"><use xlink:href="#a"/></mask><g opacity=".3" mask="url(#b)" fill="#E2E8EA"><path d="M225.995 124.694h-.001c-15.887 4.257-19.119 43.713-14.797 59.842 4.322 16.13 20.706 25.756 36.592 21.5l.001-.001c15.888-4.257 25.263-20.785 20.94-36.915-4.32-16.13-26.847-48.683-42.735-44.426zm20.16 75.24c-13.119 3.515-26.65-4.433-30.22-17.755-3.57-13.322-.898-45.907 12.22-49.422 13.119-3.515 31.725 23.37 35.294 36.69 3.57 13.322-4.174 26.971-17.294 30.486zM14.816 161.21c-10.957 2.935-13.251 29.904-10.3 40.92 2.952 11.015 14.228 17.565 25.184 14.63 10.958-2.936 17.447-14.247 14.495-25.263-2.951-11.016-18.422-33.223-29.379-30.288zm13.768 51.383c-9.048 2.424-18.36-2.985-20.798-12.083-2.438-9.097-.542-31.37 8.506-33.794 9.047-2.424 21.825 15.917 24.263 25.014 2.437 9.098-2.923 18.438-11.97 20.863zM172.968 159.156h-.001c-10.956 2.935-13.25 29.904-10.3 40.92 2.953 11.015 14.228 17.566 25.184 14.63h.001c10.957-2.936 17.446-14.247 14.495-25.263-2.952-11.016-18.422-33.223-29.38-30.287zm13.768 51.383c-9.048 2.424-18.36-2.985-20.798-12.082-2.438-9.098-.542-31.37 8.505-33.795 9.047-2.424 21.826 15.917 24.263 25.014 2.438 9.098-2.923 18.438-11.97 20.863zM131.89 202.288h-.001c-10.957 2.936-13.25 29.904-10.3 40.92 2.952 11.015 14.228 17.566 25.184 14.63 10.958-2.936 17.447-14.246 14.495-25.262-2.95-11.016-18.422-33.224-29.379-30.288zm13.767 51.383c-9.048 2.424-18.36-2.984-20.798-12.082-2.437-9.098-.541-31.37 8.506-33.795 9.047-2.424 21.825 15.917 24.263 25.014 2.437 9.098-2.923 18.439-11.97 20.863zM78.693 80.243h-.001C54.04 86.848 48.643 146.65 55.179 171.04c6.535 24.393 31.82 38.812 56.472 32.207h.001c24.653-6.607 39.34-31.736 32.803-56.128-6.534-24.393-41.108-73.482-65.762-66.876zm30.487 113.776c-20.358 5.455-41.24-6.451-46.638-26.596-5.398-20.145-.937-69.533 19.419-74.987 20.356-5.455 48.913 35.088 54.31 55.231 5.398 20.145-6.734 40.898-27.091 46.352zM30.873-8.81c-15.888 4.256-19.12 43.712-14.798 59.842 4.322 16.13 20.706 25.756 36.592 21.499h.001c15.888-4.258 25.263-20.785 20.94-36.915-4.32-16.131-26.847-48.684-42.735-44.427zm20.16 75.239c-13.119 3.515-26.65-4.433-30.22-17.754-3.57-13.322-.898-45.907 12.22-49.422 13.119-3.515 31.725 23.37 35.295 36.69 3.57 13.322-4.175 26.97-17.295 30.486zM-45.122 95.94c-15.887 4.256-19.12 43.712-14.798 59.841 4.322 16.13 20.706 25.756 36.593 21.5 15.888-4.258 25.263-20.785 20.941-36.916-4.321-16.13-26.848-48.683-42.736-44.426zm20.16 75.239c-13.119 3.515-26.65-4.433-30.22-17.755-3.569-13.322-.898-45.907 12.22-49.422 13.12-3.515 31.725 23.37 35.295 36.69 3.57 13.323-4.175 26.971-17.294 30.487zM111.93-20.854C92.207-15.57 87.748 31.745 92.913 51.021 98.08 70.3 118.256 81.643 137.977 76.36h.001c19.723-5.285 31.523-25.197 26.358-44.475-5.165-19.278-32.683-58.023-52.406-52.738zm24.094 89.92c-16.286 4.364-32.95-5.003-37.215-20.924-4.266-15.921-.581-54.996 15.703-59.36 16.285-4.363 39.014 27.636 43.28 43.556 4.266 15.92-5.481 32.364-21.768 36.728zM202-26.841c-21.365 5.725-25.98 57.787-20.288 79.03 5.693 21.246 27.629 33.827 48.993 28.103h.002c21.366-5.726 34.07-27.59 28.378-48.834-5.691-21.246-35.718-64.024-57.084-58.299zm26.553 99.096c-17.643 4.727-35.76-5.661-40.461-23.207-4.701-17.546-.888-60.542 16.754-65.27 17.642-4.726 42.443 30.604 47.144 48.148 4.702 17.546-5.793 35.601-23.437 40.329zM168.86 72.891h-.001c-10.956 2.936-13.25 29.905-10.299 40.92 2.952 11.016 14.227 17.566 25.184 14.63 10.957-2.936 17.446-14.246 14.495-25.262-2.951-11.016-18.422-33.224-29.38-30.288zm13.768 51.383c-9.048 2.425-18.36-2.984-20.798-12.082-2.438-9.098-.542-31.37 8.505-33.794 9.047-2.424 21.826 15.917 24.263 25.014 2.438 9.098-2.922 18.438-11.97 20.862zM12.762 85.215C1.804 88.15-.49 115.119 2.461 126.135c2.952 11.015 14.228 17.566 25.184 14.63 10.958-2.936 17.447-14.247 14.495-25.262-2.95-11.017-18.422-33.224-29.379-30.288zm13.768 51.383c-9.048 2.424-18.36-2.985-20.798-12.082-2.437-9.098-.541-31.37 8.506-33.795 9.047-2.424 21.825 15.917 24.263 25.014 2.437 9.098-2.923 18.438-11.97 20.863zM12.968 238.394h-.001c-24.652 6.606-30.05 66.407-23.514 90.798 6.536 24.392 31.82 38.811 56.472 32.206h.002c24.653-6.606 39.339-31.735 32.803-56.128-6.534-24.392-41.109-73.482-65.762-66.876zm30.487 113.777c-20.358 5.455-41.24-6.452-46.638-26.597-5.398-20.145-.938-69.532 19.418-74.987 20.356-5.454 48.913 35.088 54.31 55.232 5.399 20.145-6.733 40.897-27.09 46.352zM.064 369.11c-15.887 4.257-19.12 43.713-14.798 59.842 4.322 16.13 20.706 25.756 36.593 21.5v-.001c15.888-4.257 25.263-20.785 20.941-36.915-4.321-16.13-26.848-48.683-42.736-44.426zm20.16 75.24c-13.119 3.515-26.65-4.433-30.22-17.755-3.569-13.322-.897-45.907 12.22-49.422 13.12-3.515 31.726 23.37 35.295 36.69 3.57 13.322-4.175 26.971-17.294 30.486zM172.593 252.037c-15.887 4.257-19.12 43.713-14.798 59.842 4.322 16.13 20.706 25.756 36.593 21.499 15.888-4.257 25.263-20.785 20.941-36.915-4.321-16.13-26.848-48.683-42.736-44.426zm20.16 75.24c-13.119 3.514-26.65-4.434-30.22-17.755-3.569-13.322-.898-45.907 12.22-49.422 13.12-3.515 31.725 23.37 35.295 36.69 3.57 13.322-4.175 26.97-17.294 30.486zM79.068 357.066h-.001c-19.722 5.285-24.18 52.599-19.016 71.876 5.166 19.277 25.342 30.621 45.064 25.337 19.723-5.285 31.523-25.197 26.358-44.475-5.164-19.278-32.683-58.022-52.405-52.738zm24.094 89.92c-16.286 4.364-32.95-5.002-37.216-20.924-4.266-15.92-.581-54.996 15.704-59.36 16.285-4.363 39.014 27.636 43.28 43.556 4.265 15.921-5.482 32.365-21.768 36.729zM82.595 220.773c-10.957 2.936-13.25 29.905-10.3 40.92 2.952 11.016 14.228 17.566 25.184 14.63 10.958-2.936 17.447-14.246 14.495-25.262-2.95-11.016-18.422-33.224-29.379-30.288zm13.768 51.383c-9.047 2.424-18.36-2.984-20.798-12.082-2.437-9.098-.541-31.37 8.506-33.794 9.047-2.425 21.825 15.917 24.263 25.014 2.438 9.098-2.923 18.438-11.97 20.862zM106.904 282.705c-14.244 3.817-17.085 39.403-13.185 53.959 3.9 14.557 18.61 23.263 32.853 19.447h.001c14.244-3.817 22.629-18.712 18.728-33.268-3.9-14.557-24.153-43.954-38.397-40.138zm18.194 67.9c-11.763 3.151-23.911-4.038-27.132-16.06-3.222-12.022-.873-41.412 10.888-44.563 11.761-3.151 28.49 21.127 31.71 33.148 3.222 12.022-3.704 24.323-15.466 27.474zM169.138 351.08h-.001c-21.365 5.724-25.98 57.786-20.288 79.03 5.693 21.245 27.629 33.827 48.994 28.102h.001c21.366-5.725 34.071-27.59 28.379-48.834-5.692-21.245-35.719-64.024-57.085-58.299zm26.553 99.095c-17.643 4.728-35.76-5.661-40.462-23.207-4.701-17.545-.887-60.542 16.755-65.269 17.642-4.727 42.443 30.603 47.144 48.148 4.701 17.545-5.794 35.6-23.437 40.328zM-18.047 463.135c-10.957 2.936-13.25 29.905-10.3 40.92 2.952 11.016 14.228 17.566 25.184 14.63h.001c10.957-2.936 17.446-14.246 14.494-25.262-2.95-11.016-18.422-33.224-29.379-30.288zm13.768 51.383c-9.047 2.424-18.36-2.984-20.797-12.082-2.438-9.098-.542-31.37 8.505-33.794 9.047-2.425 21.825 15.917 24.263 25.014 2.438 9.098-2.923 18.438-11.97 20.862zM207.92 212.417c-9.313 2.496-11.216 25.595-8.686 35.037 2.53 9.442 12.131 15.073 21.444 12.578 9.314-2.496 14.813-12.173 12.283-21.616-2.53-9.442-15.727-28.494-25.04-25.999zm11.801 44.043c-7.69 2.06-15.62-2.59-17.71-10.387-2.089-7.798-.516-26.875 7.174-28.936 7.69-2.06 18.59 13.675 20.68 21.472 2.09 7.798-2.453 15.79-10.144 17.851zM269.502 85.215h-.001c-10.956 2.936-13.25 29.904-10.3 40.92 2.953 11.015 14.228 17.566 25.184 14.63h.001c10.957-2.936 17.446-14.247 14.495-25.262-2.952-11.017-18.422-33.224-29.38-30.288zm13.768 51.383c-9.048 2.424-18.36-2.985-20.798-12.082-2.438-9.098-.542-31.37 8.505-33.795 9.047-2.424 21.826 15.917 24.263 25.014 2.438 9.098-2.923 18.438-11.97 20.863z"/></g></g></svg>