<svg width="356" height="479" xmlns="http://www.w3.org/2000/svg" xmlns:xlink="http://www.w3.org/1999/xlink"><defs><path d="M0 0h361v480H0V0z" id="a"/></defs><g transform="translate(-5)" fill="none" fill-rule="evenodd"><mask id="b" fill="#fff"><use xlink:href="#a"/></mask><g mask="url(#b)" fill="#E2E8EA" opacity=".2"><path d="M79.005 326.093h.001c15.887-4.257 19.119-43.712 14.797-59.842-4.322-16.13-20.706-25.756-36.592-21.499h-.001c-15.888 4.257-25.263 20.785-20.94 36.915 4.32 16.13 26.847 48.683 42.735 44.426zm-20.16-75.24c13.119-3.514 26.65 4.434 30.22 17.755 3.57 13.322.898 45.907-12.22 49.422-13.119 3.515-31.725-23.37-35.294-36.69-3.57-13.322 4.174-26.97 17.294-30.486zM378.224 477.628h.001c21.365-5.725 25.98-57.787 20.288-79.03-5.693-21.245-27.629-33.827-48.994-28.102h-.001c-21.366 5.725-34.071 27.589-28.379 48.834 5.692 21.245 35.719 64.023 57.085 58.298zm-26.553-99.096c17.643-4.727 35.76 5.662 40.462 23.207 4.701 17.546.887 60.542-16.755 65.27-17.642 4.727-42.443-30.604-47.144-48.148-4.701-17.546 5.794-35.601 23.437-40.329zM351.801 225.906h.001c10.956-2.935 13.25-29.904 10.299-40.92-2.952-11.015-14.227-17.566-25.184-14.63-10.957 2.936-17.446 14.247-14.495 25.262 2.951 11.017 18.422 33.224 29.38 30.288zm-13.768-51.383c9.048-2.424 18.36 2.985 20.798 12.082 2.438 9.098.542 31.37-8.505 33.795-9.047 2.424-21.826-15.917-24.263-25.014-2.438-9.098 2.923-18.438 11.97-20.863zM290.184 289.578c10.957-2.936 13.251-29.905 10.3-40.92-2.952-11.016-14.228-17.566-25.184-14.63-10.958 2.936-17.447 14.246-14.495 25.262 2.951 11.016 18.422 33.224 29.379 30.288zm-13.768-51.383c9.048-2.425 18.36 2.984 20.798 12.082 2.438 9.098.542 31.37-8.506 33.794-9.047 2.424-21.825-15.917-24.263-25.014-2.437-9.098 2.923-18.438 11.97-20.862zM132.032 291.632h.001c10.956-2.936 13.25-29.905 10.3-40.92-2.953-11.016-14.228-17.566-25.184-14.63h-.001c-10.957 2.936-17.446 14.246-14.495 25.262 2.952 11.016 18.422 33.224 29.38 30.288zm-13.768-51.383c9.048-2.425 18.36 2.984 20.798 12.082 2.438 9.098.542 31.37-8.505 33.794-9.047 2.424-21.826-15.917-24.263-25.014-2.438-9.098 2.923-18.438 11.97-20.862zM173.11 248.5h.001c10.957-2.936 13.25-29.905 10.3-40.92-2.952-11.016-14.228-17.566-25.184-14.63-10.958 2.935-17.447 14.246-14.495 25.262 2.95 11.016 18.422 33.223 29.379 30.287zm-13.767-51.384c9.048-2.424 18.36 2.985 20.798 12.083 2.437 9.097.541 31.37-8.506 33.794-9.047 2.424-21.825-15.917-24.263-25.014-2.437-9.098 2.923-18.438 11.97-20.863zM407.631 198.75h.001c15.887-4.256 19.12-43.712 14.798-59.842-4.323-16.13-20.706-25.756-36.593-21.499-15.888 4.258-25.263 20.785-20.941 36.916 4.32 16.13 26.848 48.683 42.735 44.426zm-20.16-75.239c13.12-3.515 26.65 4.433 30.22 17.755 3.57 13.321.898 45.906-12.22 49.421-13.118 3.515-31.725-23.37-35.294-36.69-3.57-13.322 4.175-26.97 17.294-30.486zM409.033 99.708h.001c21.365-5.725 25.98-57.787 20.287-79.03C423.63-.569 401.693-13.15 380.328-7.426h-.001c-21.366 5.726-34.071 27.59-28.379 48.834 5.691 21.246 35.719 64.024 57.085 58.299zM382.48.612c17.643-4.728 35.76 5.661 40.461 23.207 4.702 17.546.888 60.542-16.754 65.269-17.642 4.727-42.443-30.603-47.144-48.147-4.701-17.546 5.794-35.602 23.437-40.33zM226.307 370.545h.001c24.652-6.606 30.049-66.407 23.513-90.798-6.535-24.392-31.82-38.812-56.472-32.206h-.001c-24.653 6.606-39.34 31.735-32.803 56.127 6.534 24.393 41.108 73.483 65.762 66.877zM195.82 256.768c20.358-5.455 41.24 6.451 46.638 26.596 5.398 20.145.937 69.533-19.419 74.988-20.356 5.454-48.913-35.088-54.31-55.232-5.398-20.145 6.734-40.897 27.091-46.352zM274.127 459.598c15.888-4.257 19.12-43.713 14.798-59.842-4.322-16.13-20.706-25.756-36.592-21.5h-.001c-15.888 4.258-25.263 20.785-20.94 36.916 4.32 16.13 26.847 48.683 42.735 44.426zm-20.16-75.24c13.119-3.515 26.65 4.433 30.22 17.755 3.57 13.322.898 45.907-12.22 49.422-13.119 3.515-31.725-23.37-35.295-36.69-3.57-13.323 4.175-26.971 17.295-30.487zM350.122 354.848c15.887-4.257 19.12-43.713 14.798-59.842-4.322-16.13-20.706-25.756-36.593-21.5v.001c-15.888 4.257-25.263 20.785-20.941 36.915 4.321 16.13 26.848 48.683 42.736 44.426zm-20.16-75.24c13.119-3.515 26.65 4.433 30.22 17.755 3.569 13.322.898 45.907-12.22 49.422-13.12 3.515-31.725-23.37-35.295-36.69-3.57-13.322 4.175-26.971 17.294-30.486zM409.685 291.177h.001c15.887-4.257 19.12-43.713 14.798-59.842-4.323-16.13-20.706-25.756-36.593-21.5-15.889 4.258-25.264 20.785-20.941 36.916 4.32 16.13 26.848 48.683 42.735 44.426zm-20.16-75.24c13.12-3.515 26.65 4.433 30.22 17.755 3.57 13.321.898 45.907-12.22 49.422-13.119 3.515-31.725-23.37-35.294-36.69-3.57-13.323 4.175-26.971 17.294-30.487zM193.07 471.641c19.722-5.284 24.181-52.598 19.016-71.875-5.166-19.278-25.342-30.622-45.063-25.337h-.001c-19.723 5.285-31.523 25.197-26.358 44.474 5.165 19.278 32.683 58.023 52.406 52.738zm-24.094-89.92c16.286-4.364 32.95 5.003 37.215 20.924 4.266 15.921.581 54.996-15.703 59.36-16.285 4.363-39.014-27.635-43.28-43.555-4.266-15.921 5.481-32.365 21.768-36.729zM103 477.628c21.365-5.725 25.98-57.787 20.288-79.03-5.693-21.245-27.629-33.827-48.993-28.102h-.002c-21.366 5.725-34.07 27.589-28.378 48.834 5.691 21.245 35.718 64.023 57.084 58.298zm-26.553-99.096c17.643-4.727 35.76 5.662 40.461 23.207 4.701 17.546.888 60.542-16.754 65.27-17.642 4.727-42.443-30.604-47.144-48.148-4.702-17.546 5.793-35.601 23.437-40.329zM136.14 377.896h.001c10.956-2.936 13.25-29.904 10.299-40.92-2.952-11.016-14.227-17.566-25.184-14.63-10.957 2.936-17.446 14.246-14.495 25.262 2.951 11.016 18.422 33.224 29.38 30.288zm-13.768-51.383c9.048-2.424 18.36 2.984 20.798 12.082 2.438 9.098.542 31.37-8.505 33.795-9.047 2.424-21.826-15.917-24.263-25.015-2.438-9.097 2.922-18.438 11.97-20.862zM292.238 365.573c10.957-2.936 13.251-29.905 10.3-40.92-2.952-11.016-14.228-17.566-25.184-14.63-10.958 2.936-17.447 14.246-14.495 25.262 2.95 11.016 18.422 33.224 29.379 30.288zM278.47 314.19c9.048-2.425 18.36 2.984 20.798 12.082 2.437 9.097.541 31.37-8.506 33.794-9.047 2.424-21.825-15.917-24.263-25.014-2.437-9.098 2.923-18.438 11.97-20.862zM292.032 212.393h.001c24.652-6.606 30.05-66.407 23.514-90.798-6.536-24.392-31.82-38.811-56.472-32.206h-.002c-24.653 6.606-39.339 31.736-32.803 56.128 6.534 24.393 41.109 73.482 65.762 66.876zM261.545 98.616c20.358-5.454 41.24 6.452 46.638 26.597 5.398 20.145.938 69.533-19.418 74.987-20.356 5.454-48.913-35.088-54.31-55.231-5.399-20.146 6.733-40.898 27.09-46.353zM304.936 81.677c15.887-4.257 19.12-43.712 14.798-59.842C315.412 5.705 299.028-3.92 283.14.336c-15.888 4.257-25.263 20.785-20.941 36.915 4.321 16.131 26.848 48.684 42.736 44.426zm-20.16-75.24c13.119-3.514 26.65 4.434 30.22 17.755 3.569 13.322.897 45.907-12.22 49.422-13.12 3.515-31.726-23.37-35.295-36.69-3.57-13.322 4.175-26.97 17.294-30.486zM132.407 198.75c15.887-4.256 19.12-43.712 14.798-59.842-4.322-16.13-20.706-25.756-36.593-21.499-15.888 4.258-25.263 20.785-20.941 36.916 4.321 16.13 26.848 48.683 42.736 44.426zm-20.16-75.239c13.119-3.515 26.65 4.433 30.22 17.755 3.569 13.321.898 45.906-12.22 49.421-13.12 3.515-31.725-23.37-35.295-36.69-3.57-13.322 4.175-26.97 17.294-30.486zM225.932 93.721h.001c19.722-5.285 24.18-52.599 19.016-71.875-5.166-19.278-25.342-30.622-45.064-25.338-19.723 5.285-31.523 25.197-26.358 44.475 5.164 19.278 32.683 58.023 52.405 52.738zm-24.094-89.92c16.286-4.364 32.95 5.003 37.216 20.924 4.266 15.921.581 54.996-15.704 59.36-16.285 4.363-39.014-27.636-43.28-43.556-4.265-15.92 5.482-32.365 21.768-36.728zM222.405 230.014c10.957-2.936 13.25-29.904 10.3-40.92-2.952-11.015-14.228-17.566-25.184-14.63-10.958 2.936-17.447 14.246-14.495 25.262 2.95 11.016 18.422 33.224 29.379 30.288zm-13.768-51.383c9.047-2.424 18.36 2.985 20.798 12.082 2.437 9.098.541 31.37-8.506 33.795-9.047 2.424-21.825-15.917-24.263-25.014-2.438-9.098 2.923-18.438 11.97-20.863zM198.096 168.082c14.244-3.817 17.085-39.403 13.185-53.959-3.9-14.556-18.61-23.263-32.853-19.447h-.001c-14.244 3.817-22.629 18.712-18.728 33.269 3.9 14.557 24.153 43.954 38.397 40.137zm-18.194-67.9c11.763-3.15 23.911 4.038 27.132 16.06 3.222 12.023.873 41.412-10.888 44.563-11.761 3.152-28.49-21.127-31.71-33.148-3.222-12.022 3.704-24.323 15.466-27.474zM135.862 99.708h.001c21.365-5.725 25.98-57.787 20.288-79.03-5.693-21.246-27.629-33.827-48.994-28.103h-.001C85.79-1.698 73.085 20.166 78.777 41.41c5.692 21.246 35.719 64.024 57.085 58.299zM109.309.612c17.643-4.728 35.76 5.661 40.462 23.207 4.701 17.546.887 60.542-16.755 65.269-17.642 4.727-42.443-30.603-47.144-48.147C81.171 23.395 91.666 5.339 109.31.61zM166.949-.024c10.957-2.936 13.251-29.905 10.3-40.92-2.952-11.016-14.228-17.566-25.184-14.63-10.958 2.936-17.447 14.246-14.495 25.262 2.951 11.016 18.422 33.224 29.379 30.288zm-13.768-51.383c9.048-2.425 18.36 2.984 20.798 12.082 2.438 9.098.542 31.37-8.505 33.794-9.048 2.424-21.826-15.917-24.264-25.014-2.437-9.098 2.923-18.438 11.971-20.862zM97.08 238.37c9.313-2.496 11.216-25.595 8.686-35.036-2.53-9.442-12.131-15.074-21.444-12.579-9.314 2.496-14.813 12.174-12.283 21.616 2.53 9.442 15.727 28.494 25.04 25.999zm-11.801-44.043c7.69-2.06 15.62 2.59 17.71 10.388 2.089 7.798.516 26.874-7.174 28.935-7.69 2.06-18.59-13.675-20.68-21.472-2.09-7.798 2.453-15.79 10.144-17.85zM35.498 365.573h.001c10.956-2.936 13.25-29.905 10.3-40.92-2.953-11.016-14.228-17.566-25.184-14.63h-.001c-10.957 2.936-17.446 14.246-14.495 25.262 2.952 11.016 18.422 33.224 29.38 30.288zM21.73 314.19c9.048-2.425 18.36 2.984 20.798 12.082 2.438 9.097.542 31.37-8.505 33.794-9.047 2.424-21.826-15.917-24.263-25.014-2.438-9.098 2.923-18.438 11.97-20.862z"/></g></g></svg>