<svg width="323" height="491" viewBox="0 0 323 491" fill="none" xmlns="http://www.w3.org/2000/svg">
<path opacity="0.2" fill-rule="evenodd" clip-rule="evenodd" d="M79.005 328.306L79.006 328.306C94.8926 324.049 98.125 284.593 93.8032 268.464C89.4811 252.333 73.0973 242.708 57.2107 246.965L57.2097 246.965C41.3221 251.222 31.9471 267.75 36.2692 283.88C40.5904 300.011 63.1174 332.563 79.005 328.306ZM58.8446 253.067C71.9639 249.551 85.4951 257.499 89.0647 270.821C92.6342 284.143 89.9628 316.728 76.8445 320.243C63.7261 323.758 45.1198 296.873 41.5505 283.552C37.981 270.231 45.7253 256.582 58.8446 253.067Z" fill="#E2E8EA"/>
<path opacity="0.2" fill-rule="evenodd" clip-rule="evenodd" d="M378.224 479.841L378.225 479.841C399.59 474.116 404.205 422.054 398.513 400.81C392.82 379.565 370.884 366.984 349.519 372.708L349.518 372.709C328.152 378.434 315.447 400.298 321.139 421.542C326.831 442.788 356.858 485.566 378.224 479.841ZM351.671 380.745C369.314 376.018 387.431 386.407 392.133 403.952C396.834 421.498 393.02 464.494 375.378 469.221C357.736 473.948 332.935 438.618 328.234 421.074C323.533 403.528 334.028 385.473 351.671 380.745Z" fill="#E2E8EA"/>
<path opacity="0.2" fill-rule="evenodd" clip-rule="evenodd" d="M351.801 228.119L351.802 228.119C362.758 225.183 365.053 198.215 362.101 187.199C359.149 176.183 347.874 169.633 336.917 172.569L336.917 172.569C325.96 175.505 319.471 186.815 322.422 197.831C325.373 208.847 340.844 231.055 351.801 228.119ZM338.033 176.736C347.081 174.312 356.393 179.72 358.831 188.818C361.269 197.916 359.373 220.188 350.326 222.613C341.279 225.037 328.5 206.696 326.063 197.598C323.625 188.501 328.986 179.16 338.033 176.736Z" fill="#E2E8EA"/>
<path opacity="0.2" fill-rule="evenodd" clip-rule="evenodd" d="M290.184 291.791L290.185 291.79C301.141 288.855 303.435 261.886 300.484 250.871C297.532 239.855 286.256 233.305 275.3 236.24L275.299 236.24C264.342 239.176 257.853 250.487 260.805 261.503C263.756 272.519 279.227 294.726 290.184 291.791ZM276.416 240.407C285.464 237.983 294.776 243.392 297.214 252.49C299.652 261.587 297.756 283.86 288.708 286.284C279.661 288.708 266.883 270.367 264.445 261.27C262.008 252.172 267.368 242.832 276.416 240.407Z" fill="#E2E8EA"/>
<path opacity="0.2" fill-rule="evenodd" clip-rule="evenodd" d="M132.032 293.844L132.033 293.844C142.989 290.909 145.284 263.94 142.332 252.925C139.38 241.909 128.105 235.358 117.149 238.294L117.148 238.294C106.191 241.23 99.7018 252.541 102.653 263.557C105.605 274.573 121.075 296.78 132.032 293.844ZM118.264 242.461C127.312 240.037 136.625 245.446 139.062 254.543C141.5 263.641 139.604 285.914 130.557 288.338C121.51 290.762 108.731 272.421 106.294 263.324C103.856 254.226 109.217 244.886 118.264 242.461Z" fill="#E2E8EA"/>
<path opacity="0.2" fill-rule="evenodd" clip-rule="evenodd" d="M173.111 250.712L173.111 250.712C184.068 247.776 186.362 220.808 183.41 209.792C180.459 198.777 169.183 192.226 158.227 195.162L158.226 195.162C147.269 198.098 140.78 209.408 143.732 220.424C146.683 231.44 162.154 253.648 173.111 250.712ZM159.343 199.329C168.39 196.905 177.703 202.313 180.141 211.411C182.578 220.509 180.682 242.781 171.635 245.206C162.588 247.63 149.81 229.289 147.372 220.192C144.934 211.094 150.295 201.753 159.343 199.329Z" fill="#E2E8EA"/>
<path opacity="0.2" fill-rule="evenodd" clip-rule="evenodd" d="M226.307 372.757L226.308 372.757C250.96 366.152 256.357 306.35 249.821 281.96C243.286 257.567 218.001 243.148 193.349 249.753L193.348 249.754C168.695 256.36 154.009 281.489 160.545 305.881C167.079 330.274 201.653 379.363 226.307 372.757ZM195.82 258.981C216.178 253.526 237.06 265.432 242.458 285.577C247.856 305.722 243.395 355.11 223.039 360.564C202.683 366.019 174.126 325.476 168.729 305.333C163.331 285.188 175.463 264.435 195.82 258.981Z" fill="#E2E8EA"/>
<path opacity="0.2" fill-rule="evenodd" clip-rule="evenodd" d="M274.127 461.811L274.128 461.81C290.015 457.554 293.247 418.098 288.925 401.968C284.603 385.838 268.219 376.212 252.333 380.469L252.332 380.47C236.444 384.727 227.069 401.254 231.391 417.385C235.712 433.515 258.239 466.068 274.127 461.811ZM253.967 386.571C267.086 383.056 280.617 391.004 284.187 404.325C287.756 417.647 285.085 450.232 271.966 453.747C258.848 457.262 240.242 430.378 236.672 417.057C233.103 403.735 240.847 390.086 253.967 386.571Z" fill="#E2E8EA"/>
<path opacity="0.2" fill-rule="evenodd" clip-rule="evenodd" d="M350.122 357.061L350.123 357.061C366.009 352.804 369.242 313.348 364.92 297.219C360.598 281.088 344.214 271.463 328.327 275.72L328.327 275.72C312.439 279.977 303.064 296.504 307.386 312.635C311.707 328.765 334.234 361.318 350.122 357.061ZM329.961 281.821C343.081 278.306 356.612 286.254 360.181 299.576C363.751 312.898 361.08 345.483 347.961 348.998C334.843 352.513 316.237 325.628 312.667 312.307C309.098 298.985 316.842 285.337 329.961 281.821Z" fill="#E2E8EA"/>
<path opacity="0.2" fill-rule="evenodd" clip-rule="evenodd" d="M193.07 473.854L193.071 473.854C212.792 468.57 217.251 421.255 212.086 401.979C206.92 382.701 186.744 371.357 167.023 376.641L167.022 376.642C147.299 381.926 135.499 401.838 140.664 421.116C145.829 440.394 173.347 479.139 193.07 473.854ZM168.976 383.934C185.262 379.57 201.925 388.937 206.191 404.858C210.457 420.779 206.772 459.854 190.488 464.218C174.203 468.581 151.474 436.582 147.208 420.662C142.942 404.741 152.689 388.298 168.976 383.934Z" fill="#E2E8EA"/>
<path opacity="0.2" fill-rule="evenodd" clip-rule="evenodd" d="M102.999 479.841L103.001 479.841C124.365 474.116 128.98 422.054 123.288 400.81C117.595 379.565 95.6594 366.984 74.2946 372.708L74.2933 372.709C52.9272 378.434 40.2222 400.298 45.9147 421.542C51.606 442.788 81.6332 485.566 102.999 479.841ZM76.4466 380.745C94.0898 376.018 112.207 386.407 116.908 403.952C121.609 421.498 117.796 464.494 100.154 469.221C82.5118 473.948 57.7106 438.618 53.0096 421.074C48.3083 403.528 58.8034 385.473 76.4466 380.745Z" fill="#E2E8EA"/>
<path opacity="0.2" fill-rule="evenodd" clip-rule="evenodd" d="M136.14 380.109L136.141 380.109C147.097 377.173 149.391 350.204 146.44 339.189C143.488 328.173 132.213 321.623 121.256 324.559L121.256 324.559C110.299 327.495 103.81 338.805 106.761 349.821C109.712 360.837 125.183 383.045 136.14 380.109ZM122.372 328.726C131.42 326.301 140.732 331.71 143.17 340.808C145.608 349.906 143.712 372.178 134.665 374.602C125.618 377.026 112.839 358.685 110.402 349.588C107.964 340.49 113.324 331.15 122.372 328.726Z" fill="#E2E8EA"/>
<path opacity="0.2" fill-rule="evenodd" clip-rule="evenodd" d="M292.238 367.785L292.238 367.785C303.195 364.849 305.489 337.881 302.537 326.866C299.586 315.85 288.31 309.299 277.354 312.235L277.353 312.235C266.396 315.171 259.907 326.482 262.859 337.497C265.81 348.514 281.281 370.721 292.238 367.785ZM278.47 316.402C287.518 313.978 296.83 319.387 299.268 328.484C301.705 337.582 299.809 359.855 290.762 362.279C281.715 364.703 268.937 346.362 266.499 337.265C264.062 328.167 269.422 318.827 278.47 316.402Z" fill="#E2E8EA"/>
<path opacity="0.2" fill-rule="evenodd" clip-rule="evenodd" d="M292.032 214.606L292.033 214.606C316.685 208 322.082 148.199 315.547 123.808C309.011 99.4158 283.726 84.9966 259.075 91.602L259.073 91.6024C234.42 98.2082 219.734 123.337 226.27 147.73C232.804 172.122 267.379 221.212 292.032 214.606ZM261.545 100.829C281.903 95.3744 302.785 107.281 308.183 127.426C313.581 147.571 309.121 196.958 288.765 202.413C268.409 207.867 239.852 167.325 234.454 147.181C229.056 127.036 241.188 106.284 261.545 100.829Z" fill="#E2E8EA"/>
<path opacity="0.2" fill-rule="evenodd" clip-rule="evenodd" d="M304.936 83.8902L304.937 83.8899C320.823 79.6331 324.056 40.1773 319.734 24.0479C315.412 7.91751 299.028 -1.708 283.141 2.54882L283.14 2.54907C267.253 6.80615 257.878 23.3337 262.2 39.4641C266.521 55.5947 289.048 88.1473 304.936 83.8902ZM284.775 8.65067C297.895 5.13536 311.426 13.0833 314.995 26.4051C318.565 39.7268 315.893 72.3119 302.775 75.827C289.657 79.342 271.05 52.4572 267.481 39.1365C263.912 25.8147 271.656 12.166 284.775 8.65067Z" fill="#E2E8EA"/>
<path opacity="0.2" fill-rule="evenodd" clip-rule="evenodd" d="M132.407 200.963L132.408 200.963C148.294 196.706 151.527 157.25 147.205 141.121C142.883 124.991 126.499 115.365 110.612 119.622L110.612 119.622C94.7239 123.879 85.3489 140.407 89.671 156.537C93.9922 172.668 116.519 205.22 132.407 200.963ZM112.246 125.724C125.366 122.209 138.897 130.157 142.466 143.478C146.036 156.8 143.365 189.385 130.246 192.9C117.128 196.415 98.5216 169.53 94.9523 156.21C91.3828 142.888 99.1271 129.239 112.246 125.724Z" fill="#E2E8EA"/>
<path opacity="0.2" fill-rule="evenodd" clip-rule="evenodd" d="M225.932 95.9338L225.933 95.9335C245.655 90.6491 250.114 43.335 244.949 24.0584C239.783 4.7806 219.607 -6.56342 199.885 -1.27909L199.884 -1.27877C180.162 4.00587 168.362 23.9179 173.527 43.1957C178.691 62.4738 206.21 101.218 225.932 95.9338ZM201.838 6.01337C218.124 1.64954 234.788 11.0165 239.054 26.9376C243.32 42.8587 239.635 81.9337 223.35 86.2972C207.065 90.6607 184.336 58.662 180.071 42.7421C175.805 26.821 185.552 10.3772 201.838 6.01337Z" fill="#E2E8EA"/>
<path opacity="0.2" fill-rule="evenodd" clip-rule="evenodd" d="M222.405 232.227L222.405 232.227C233.362 229.291 235.656 202.322 232.704 191.307C229.753 180.291 218.477 173.741 207.521 176.677L207.52 176.677C196.563 179.613 190.074 190.923 193.026 201.939C195.977 212.955 211.448 235.163 222.405 232.227ZM208.637 180.844C217.684 178.42 226.997 183.828 229.435 192.926C231.872 202.024 229.976 224.296 220.929 226.72C211.882 229.145 199.104 210.803 196.666 201.706C194.228 192.608 199.589 183.268 208.637 180.844Z" fill="#E2E8EA"/>
<path opacity="0.2" fill-rule="evenodd" clip-rule="evenodd" d="M198.096 170.295L198.097 170.294C212.34 166.478 215.181 130.892 211.281 116.336C207.381 101.779 192.671 93.0725 178.428 96.889L178.427 96.8892C164.183 100.706 155.798 115.601 159.699 130.157C163.598 144.714 183.852 174.111 198.096 170.295ZM179.902 102.396C191.665 99.2439 203.813 106.433 207.034 118.455C210.256 130.477 207.907 159.867 196.146 163.018C184.385 166.169 167.656 141.891 164.435 129.87C161.214 117.848 168.14 105.547 179.902 102.396Z" fill="#E2E8EA"/>
<path opacity="0.2" fill-rule="evenodd" clip-rule="evenodd" d="M135.862 101.921L135.863 101.92C157.228 96.1955 161.843 44.1336 156.151 22.89C150.458 1.64505 128.522 -10.9367 107.157 -5.21198L107.156 -5.21163C85.7899 0.513403 73.0849 22.3772 78.7774 43.6221C84.4687 64.8673 114.496 107.646 135.862 101.921ZM109.309 2.82461C126.952 -1.90288 145.069 8.48608 149.771 26.0318C154.472 43.5775 150.658 86.5736 133.016 91.3007C115.374 96.0278 90.5733 60.6977 85.8723 43.1533C81.1709 25.6076 91.6661 7.55209 109.309 2.82461Z" fill="#E2E8EA"/>
<path opacity="0.2" fill-rule="evenodd" clip-rule="evenodd" d="M166.949 2.18845L166.95 2.18827C177.906 -0.747464 180.2 -27.7161 177.249 -38.7313C174.297 -49.7472 163.021 -56.2975 152.065 -53.3618L152.064 -53.3616C141.107 -50.4257 134.618 -39.1154 137.57 -28.0995C140.521 -17.0834 155.992 5.12436 166.949 2.18845ZM153.181 -49.1946C162.229 -51.619 171.541 -46.2103 173.979 -37.1125C176.417 -28.0147 174.521 -5.74232 165.474 -3.31815C156.426 -0.893977 143.648 -19.2351 141.21 -28.3323C138.773 -37.43 144.133 -46.7703 153.181 -49.1946Z" fill="#E2E8EA"/>
<path opacity="0.2" fill-rule="evenodd" clip-rule="evenodd" d="M97.0797 240.583L97.0803 240.582C106.393 238.087 108.296 214.988 105.766 205.546C103.236 196.104 93.6349 190.473 84.3221 192.968L84.3215 192.968C75.0081 195.464 69.5094 205.141 72.0395 214.584C74.5689 224.026 87.7663 243.078 97.0797 240.583ZM85.2785 196.54C92.9692 194.479 100.899 199.129 102.988 206.927C105.078 214.726 103.505 233.802 95.815 235.863C88.125 237.923 77.2245 222.188 75.1352 214.391C73.0457 206.593 77.5879 198.601 85.2785 196.54Z" fill="#E2E8EA"/>
<path opacity="0.2" fill-rule="evenodd" clip-rule="evenodd" d="M35.4984 367.785L35.4991 367.785C46.4554 364.849 48.7496 337.881 45.7981 326.866C42.8464 315.85 31.5708 309.299 20.6145 312.235L20.6139 312.235C9.65688 315.171 3.16779 326.482 6.11948 337.497C9.07051 348.514 24.5415 370.721 35.4984 367.785ZM21.7304 316.402C30.7782 313.978 40.0906 319.387 42.5283 328.484C44.966 337.582 43.0701 359.855 34.023 362.279C24.9758 364.703 12.1975 346.362 9.75992 337.265C7.32218 328.167 12.6826 318.827 21.7304 316.402Z" fill="#E2E8EA"/>
</svg>
